<svg width="104" height="60" viewBox="0 0 104 60" fill="none" xmlns="http://www.w3.org/2000/svg">
<path d="M12.8374 8.742C13.0894 8.30333 13.4627 7.93933 13.9574 7.65C14.4614 7.35133 15.0447 7.202 15.7074 7.202C16.3887 7.202 17.0047 7.36533 17.5554 7.692C18.1154 8.01867 18.554 8.48067 18.8714 9.078C19.1887 9.666 19.3474 10.352 19.3474 11.136C19.3474 11.9107 19.1887 12.6013 18.8714 13.208C18.554 13.8147 18.1154 14.286 17.5554 14.622C17.0047 14.958 16.3887 15.126 15.7074 15.126C15.054 15.126 14.4754 14.9813 13.9714 14.692C13.4767 14.3933 13.0987 14.0247 12.8374 13.586V18.64H11.5634V7.328H12.8374V8.742ZM18.0454 11.136C18.0454 10.5573 17.9287 10.0533 17.6954 9.624C17.462 9.19467 17.1447 8.868 16.7434 8.644C16.3514 8.42 15.9174 8.308 15.4414 8.308C14.9747 8.308 14.5407 8.42467 14.1394 8.658C13.7474 8.882 13.43 9.21333 13.1874 9.652C12.954 10.0813 12.8374 10.5807 12.8374 11.15C12.8374 11.7287 12.954 12.2373 13.1874 12.676C13.43 13.1053 13.7474 13.4367 14.1394 13.67C14.5407 13.894 14.9747 14.006 15.4414 14.006C15.9174 14.006 16.3514 13.894 16.7434 13.67C17.1447 13.4367 17.462 13.1053 17.6954 12.676C17.9287 12.2373 18.0454 11.724 18.0454 11.136ZM24.3703 15.126C23.6516 15.126 22.9983 14.9627 22.4103 14.636C21.8316 14.3093 21.3743 13.8473 21.0383 13.25C20.7116 12.6433 20.5483 11.9433 20.5483 11.15C20.5483 10.366 20.7163 9.67533 21.0523 9.078C21.3976 8.47133 21.8643 8.00933 22.4523 7.692C23.0403 7.36533 23.6983 7.202 24.4263 7.202C25.1543 7.202 25.8123 7.36533 26.4003 7.692C26.9883 8.00933 27.4503 8.46667 27.7863 9.064C28.1316 9.66133 28.3043 10.3567 28.3043 11.15C28.3043 11.9433 28.127 12.6433 27.7723 13.25C27.427 13.8473 26.9556 14.3093 26.3583 14.636C25.761 14.9627 25.0983 15.126 24.3703 15.126ZM24.3703 14.006C24.8276 14.006 25.257 13.8987 25.6583 13.684C26.0596 13.4693 26.3816 13.1473 26.6243 12.718C26.8763 12.2887 27.0023 11.766 27.0023 11.15C27.0023 10.534 26.881 10.0113 26.6383 9.582C26.3956 9.15267 26.0783 8.83533 25.6863 8.63C25.2943 8.41533 24.8696 8.308 24.4123 8.308C23.9456 8.308 23.5163 8.41533 23.1243 8.63C22.7416 8.83533 22.4336 9.15267 22.2003 9.582C21.967 10.0113 21.8503 10.534 21.8503 11.15C21.8503 11.7753 21.9623 12.3027 22.1863 12.732C22.4196 13.1613 22.7276 13.4833 23.1103 13.698C23.493 13.9033 23.913 14.006 24.3703 14.006ZM40.1994 7.328L37.8054 15H36.4894L34.6414 8.91L32.7934 15H31.4774L29.0694 7.328H30.3714L32.1354 13.768L34.0394 7.328H35.3414L37.2034 13.782L38.9394 7.328H40.1994ZM48.4637 10.87C48.4637 11.1127 48.4497 11.3693 48.4217 11.64H42.2897C42.3364 12.396 42.5931 12.9887 43.0597 13.418C43.5357 13.838 44.1097 14.048 44.7817 14.048C45.3324 14.048 45.7897 13.922 46.1537 13.67C46.5271 13.4087 46.7884 13.0633 46.9377 12.634H48.3097C48.1044 13.3713 47.6937 13.9733 47.0777 14.44C46.4617 14.8973 45.6964 15.126 44.7817 15.126C44.0537 15.126 43.4004 14.9627 42.8217 14.636C42.2524 14.3093 41.8044 13.8473 41.4777 13.25C41.1511 12.6433 40.9877 11.9433 40.9877 11.15C40.9877 10.3567 41.1464 9.66133 41.4637 9.064C41.7811 8.46667 42.2244 8.00933 42.7937 7.692C43.3724 7.36533 44.0351 7.202 44.7817 7.202C45.5097 7.202 46.1537 7.36067 46.7137 7.678C47.2737 7.99533 47.7031 8.434 48.0017 8.994C48.3097 9.54467 48.4637 10.17 48.4637 10.87ZM47.1477 10.604C47.1477 10.1187 47.0404 9.70333 46.8257 9.358C46.6111 9.00333 46.3171 8.73733 45.9437 8.56C45.5797 8.37333 45.1737 8.28 44.7257 8.28C44.0817 8.28 43.5311 8.48533 43.0737 8.896C42.6257 9.30667 42.3691 9.876 42.3037 10.604H47.1477ZM51.4194 8.574C51.6434 8.13533 51.9607 7.79467 52.3714 7.552C52.7914 7.30933 53.3 7.188 53.8974 7.188V8.504H53.5614C52.1334 8.504 51.4194 9.27867 51.4194 10.828V15H50.1454V7.328H51.4194V8.574ZM62.368 10.87C62.368 11.1127 62.354 11.3693 62.326 11.64H56.194C56.2407 12.396 56.4974 12.9887 56.964 13.418C57.44 13.838 58.014 14.048 58.686 14.048C59.2367 14.048 59.694 13.922 60.058 13.67C60.4314 13.4087 60.6927 13.0633 60.842 12.634H62.214C62.0087 13.3713 61.598 13.9733 60.982 14.44C60.366 14.8973 59.6007 15.126 58.686 15.126C57.958 15.126 57.3047 14.9627 56.726 14.636C56.1567 14.3093 55.7087 13.8473 55.382 13.25C55.0554 12.6433 54.892 11.9433 54.892 11.15C54.892 10.3567 55.0507 9.66133 55.368 9.064C55.6854 8.46667 56.1287 8.00933 56.698 7.692C57.2767 7.36533 57.9394 7.202 58.686 7.202C59.414 7.202 60.058 7.36067 60.618 7.678C61.178 7.99533 61.6074 8.434 61.906 8.994C62.214 9.54467 62.368 10.17 62.368 10.87ZM61.052 10.604C61.052 10.1187 60.9447 9.70333 60.73 9.358C60.5154 9.00333 60.2214 8.73733 59.848 8.56C59.484 8.37333 59.078 8.28 58.63 8.28C57.986 8.28 57.4354 8.48533 56.978 8.896C56.53 9.30667 56.2734 9.876 56.208 10.604H61.052ZM63.5737 11.136C63.5737 10.352 63.7323 9.666 64.0497 9.078C64.367 8.48067 64.801 8.01867 65.3517 7.692C65.9117 7.36533 66.537 7.202 67.2277 7.202C67.825 7.202 68.3803 7.342 68.8937 7.622C69.407 7.89267 69.799 8.252 70.0697 8.7V4.64H71.3577V15H70.0697V13.558C69.8177 14.0153 69.4443 14.3933 68.9497 14.692C68.455 14.9813 67.8763 15.126 67.2137 15.126C66.5323 15.126 65.9117 14.958 65.3517 14.622C64.801 14.286 64.367 13.8147 64.0497 13.208C63.7323 12.6013 63.5737 11.9107 63.5737 11.136ZM70.0697 11.15C70.0697 10.5713 69.953 10.0673 69.7197 9.638C69.4863 9.20867 69.169 8.882 68.7677 8.658C68.3757 8.42467 67.9417 8.308 67.4657 8.308C66.9897 8.308 66.5557 8.42 66.1637 8.644C65.7717 8.868 65.459 9.19467 65.2257 9.624C64.9923 10.0533 64.8757 10.5573 64.8757 11.136C64.8757 11.724 64.9923 12.2373 65.2257 12.676C65.459 13.1053 65.7717 13.4367 66.1637 13.67C66.5557 13.894 66.9897 14.006 67.4657 14.006C67.9417 14.006 68.3757 13.894 68.7677 13.67C69.169 13.4367 69.4863 13.1053 69.7197 12.676C69.953 12.2373 70.0697 11.7287 70.0697 11.15ZM78.517 8.756C78.7784 8.29867 79.161 7.92533 79.665 7.636C80.169 7.34667 80.743 7.202 81.387 7.202C82.0777 7.202 82.6984 7.36533 83.249 7.692C83.7997 8.01867 84.2337 8.48067 84.551 9.078C84.8684 9.666 85.027 10.352 85.027 11.136C85.027 11.9107 84.8684 12.6013 84.551 13.208C84.2337 13.8147 83.795 14.286 83.235 14.622C82.6844 14.958 82.0684 15.126 81.387 15.126C80.7244 15.126 80.141 14.9813 79.637 14.692C79.1424 14.4027 78.769 14.034 78.517 13.586V15H77.243V4.64H78.517V8.756ZM83.725 11.136C83.725 10.5573 83.6084 10.0533 83.375 9.624C83.1417 9.19467 82.8244 8.868 82.423 8.644C82.031 8.42 81.597 8.308 81.121 8.308C80.6544 8.308 80.2204 8.42467 79.819 8.658C79.427 8.882 79.1097 9.21333 78.867 9.652C78.6337 10.0813 78.517 10.5807 78.517 11.15C78.517 11.7287 78.6337 12.2373 78.867 12.676C79.1097 13.1053 79.427 13.4367 79.819 13.67C80.2204 13.894 80.6544 14.006 81.121 14.006C81.597 14.006 82.031 13.894 82.423 13.67C82.8244 13.4367 83.1417 13.1053 83.375 12.676C83.6084 12.2373 83.725 11.724 83.725 11.136ZM93.312 7.328L88.692 18.612H87.376L88.888 14.916L85.794 7.328H87.208L89.616 13.544L91.996 7.328H93.312Z" fill="white"/>
<g clip-path="url(#clip0_93_103)">
<path d="M11.4129 28.701C5.10971 28.701 0 33.9041 0 40.3225C0 46.7408 5.10971 51.9439 11.4129 51.9439C17.7161 51.9439 22.8258 46.7408 22.8258 40.3225C22.8258 33.9041 17.7161 28.701 11.4129 28.701ZM18.5832 42.7602C18.3221 43.6555 17.8791 44.4879 17.2542 45.257C16.6291 46.0264 15.8358 46.6489 14.8744 47.1242C13.9129 47.6 12.8275 47.8376 11.6189 47.8376C10.1902 47.8376 8.91624 47.5196 7.79689 46.883C6.6772 46.2467 5.80496 45.3619 5.18015 44.2289C4.55491 43.096 4.2426 41.8024 4.2426 40.3475C4.2426 38.8925 4.55489 37.5957 5.18015 36.4555C5.80496 35.3157 6.67398 34.4276 7.78657 33.791C8.89926 33.1547 10.1696 32.8363 11.5984 32.8363C13.3291 32.8363 14.7885 33.2631 15.9768 34.1161C17.1648 34.9695 17.9512 36.1513 18.336 37.6619H14.4418C14.1807 37.1725 13.8063 36.7984 13.3188 36.5394C12.8311 36.2807 12.2577 36.1513 11.5984 36.1513C10.4581 36.1513 9.54471 36.5326 8.85799 37.2947C8.17101 38.0573 7.82778 39.0748 7.82778 40.3474C7.82778 41.7043 8.18839 42.7638 8.90949 43.526C9.63071 44.2885 10.6229 44.6695 11.8868 44.6695C12.7522 44.6695 13.4837 44.4459 14.0812 43.9981C14.6787 43.5506 15.1146 42.9071 15.3896 42.0678H10.9184V39.4243H18.5833V42.7602L18.5832 42.7602Z" fill="white"/>
<path d="M24.3443 31.0885C23.7453 30.5217 23.4457 29.8204 23.4457 28.9856C23.4457 28.1299 23.7453 27.418 24.3443 26.8507C24.9433 26.2839 25.7157 26 26.6616 26C27.5863 26 28.3483 26.2839 28.9473 26.8507C29.5464 27.418 29.8459 28.1299 29.8459 28.9856C29.8459 29.8204 29.5464 30.5217 28.9473 31.0885C28.3483 31.6558 27.5863 31.9392 26.6616 31.9392C25.7157 31.9392 24.9433 31.6558 24.3443 31.0885ZM29.3414 33.8012V51.7152H23.9502V33.8012H29.3414Z" fill="white"/>
<path d="M103.905 44.0745H91.7042C91.7879 45.1877 92.1401 46.0383 92.7604 46.6267C93.3801 47.2156 94.1421 47.5096 95.0461 47.5096C96.3909 47.5096 97.3265 46.9318 97.852 45.7761H103.59C103.296 46.9534 102.765 48.0128 101.998 48.9543C101.23 49.8964 100.269 50.6348 99.1132 51.1695C97.957 51.7046 96.6644 51.9721 95.2352 51.9721C93.5116 51.9721 91.9771 51.5979 90.6322 50.8485C89.2868 50.0995 88.236 49.0296 87.4794 47.6381C86.7228 46.2471 86.3444 44.6203 86.3444 42.7583C86.3444 40.8963 86.7173 39.2699 87.4636 37.8784C88.2095 36.4874 89.2553 35.4175 90.6006 34.668C91.9455 33.9191 93.4903 33.5444 95.2352 33.5444C96.9378 33.5444 98.451 33.9087 99.7752 34.636C101.099 35.3638 102.134 36.4017 102.881 37.7501C103.627 39.0985 104 40.6715 104 42.4694C104 42.983 103.968 43.5182 103.905 44.0746L103.905 44.0745ZM95.3124 41.6005C96.9836 41.6008 98.1687 40.4012 98.4662 39.0575C98.6535 38.2111 98.3725 37.5215 97.556 37.7445C97.132 37.8603 96.7367 38.0921 96.3102 38.1923C95.6482 38.348 94.8122 38.3544 94.1575 38.1489C93.789 38.0333 93.4417 37.8463 93.0688 37.7445C92.2524 37.5215 91.9713 38.2112 92.1587 39.0575C92.4561 40.4012 93.6413 41.6008 95.3124 41.6005H95.3124Z" fill="white"/>
<path d="M83.5315 35.6312C82.2389 34.2828 80.4995 33.6086 78.3136 33.6086C77.0732 33.6086 75.9279 33.9191 74.8771 34.5396C73.8259 35.1607 72.9958 35.9633 72.3865 36.9474C71.7977 35.8774 70.9835 35.0533 69.9431 34.4754C68.9027 33.8975 67.7203 33.6085 66.3961 33.6085C65.2818 33.6085 64.2838 33.8284 63.401 34.2667C62.5427 34.6935 61.8445 35.2681 61.3042 35.988L60.3981 37.1204C60.1138 36.5685 59.7621 36.0714 59.3401 35.6312C58.4459 34.6984 57.3375 34.0887 56.0157 33.8012C55.9806 33.7935 55.9445 33.7874 55.909 33.7803C55.3506 33.667 54.7558 33.6085 54.1223 33.6085C52.8818 33.6085 51.7365 33.9191 50.6857 34.5396C49.6345 35.1607 48.8044 35.9633 48.1951 36.9474C47.6063 35.8774 46.7921 35.0532 45.7517 34.4754C44.7113 33.8975 43.5289 33.6085 42.2047 33.6085C41.0904 33.6085 40.0923 33.8283 39.2096 34.2667C38.3269 34.7056 37.612 35.2996 37.0657 36.0485V33.8012H31.6745V51.7152H37.0657V41.9876C37.0657 40.8319 37.3653 39.9386 37.9643 39.307C38.5633 38.6759 39.388 38.3599 40.4392 38.3599C41.4903 38.3599 42.3151 38.6759 42.9141 39.307C43.5131 39.9386 43.8127 40.8319 43.8127 41.9876V51.7152H49.1725V41.9876C49.1725 40.8319 49.4719 39.9386 50.0709 39.307C50.6699 38.6759 51.4946 38.3599 52.5459 38.3599C53.5972 38.3599 54.4217 38.6759 55.0209 39.307C55.475 39.7859 55.7561 40.416 55.8659 41.196V51.7152H61.2791V41.4923C61.2846 41.0838 61.3441 40.759 61.4166 40.5114C61.5763 40.0356 61.8298 39.6506 62.1557 39.307C62.7548 38.6759 63.5794 38.3599 64.6306 38.3599C65.6818 38.3599 66.5065 38.6759 67.1056 39.307C67.7046 39.9386 68.0041 40.8319 68.0041 41.9876V51.7152H73.3639V41.9876C73.3639 40.8319 73.6633 39.9386 74.2624 39.307C74.8614 38.6759 75.6861 38.3599 76.7373 38.3599C77.7886 38.3599 78.6132 38.6759 79.2123 39.307C79.8113 39.9386 80.1108 40.8319 80.1108 41.9876V51.7152H85.4705V41.2493C85.4705 38.8525 84.8242 36.9795 83.5315 35.6311L83.5315 35.6312Z" fill="white"/>
<path d="M8.19857 56.9376C8.1214 56.7725 8.00991 56.6448 7.86391 56.5541C7.71775 56.4636 7.54779 56.4184 7.35403 56.4184C7.1601 56.4184 6.98555 56.4636 6.83021 56.5541C6.67486 56.6448 6.55267 56.7746 6.46377 56.9435C6.37471 57.1126 6.33035 57.3079 6.33035 57.5298C6.33035 57.7513 6.37471 57.9462 6.46377 58.1137C6.55265 58.2816 6.67486 58.4107 6.83021 58.5011C6.98555 58.5917 7.1601 58.6371 7.35403 58.6371C7.62494 58.6371 7.84794 58.5547 8.02316 58.3896C8.19855 58.2247 8.3007 58.0016 8.32994 57.7204H7.22265V57.4201H8.71642V57.7041C8.69502 57.9367 8.62345 58.1497 8.50126 58.3429C8.37907 58.5364 8.21845 58.6892 8.01926 58.8013C7.82007 58.9136 7.59828 58.9697 7.35403 58.9697C7.09637 58.9697 6.86131 58.9081 6.64903 58.7851C6.43641 58.662 6.2685 58.491 6.1451 58.2719C6.02154 58.0528 5.95984 57.8055 5.95984 57.5298C5.95984 57.2539 6.02154 57.0058 6.1451 56.7853C6.2685 56.565 6.43641 56.3933 6.64903 56.2702C6.86131 56.1472 7.09637 56.0858 7.35403 56.0858C7.64875 56.0858 7.90981 56.1602 8.1367 56.3087C8.36377 56.4575 8.52914 56.6671 8.63264 56.9376H8.19857V56.9376Z" fill="white"/>
<path d="M9.19435 57.2275C9.28461 57.0558 9.40867 56.9227 9.56673 56.8279C9.72479 56.7334 9.90069 56.686 10.0946 56.686C10.2858 56.686 10.4517 56.7278 10.5924 56.8118C10.7332 56.8957 10.838 57.001 10.9072 57.1282V56.7225H11.2737V58.9454H10.9072V58.5316C10.8355 58.6613 10.7286 58.769 10.5865 58.8541C10.4444 58.9393 10.279 58.9819 10.0905 58.9819C9.89662 58.9819 9.7214 58.9331 9.56469 58.8358C9.40799 58.7385 9.28459 58.602 9.19435 58.4262C9.10394 58.2505 9.0589 58.0504 9.0589 57.8258C9.0589 57.5987 9.10394 57.3994 9.19435 57.2275V57.2275ZM10.8076 57.3917C10.7412 57.2675 10.6516 57.1721 10.5387 57.1058C10.4259 57.0397 10.3016 57.0065 10.1662 57.0065C10.0309 57.0065 9.90734 57.039 9.79585 57.1038C9.68436 57.1688 9.5953 57.2633 9.52884 57.3878C9.46255 57.5122 9.42941 57.6583 9.42941 57.8258C9.42941 57.9961 9.46255 58.1442 9.52884 58.2699C9.59529 58.3957 9.68436 58.4918 9.79585 58.5579C9.90734 58.6243 10.0309 58.6574 10.1662 58.6574C10.3016 58.6574 10.4259 58.6243 10.5387 58.5579C10.6516 58.4918 10.7412 58.3957 10.8076 58.2699C10.8739 58.1442 10.9072 57.9975 10.9072 57.83C10.9072 57.6623 10.8739 57.5164 10.8076 57.3917V57.3917Z" fill="white"/>
<path d="M14.9664 56.7895C15.0991 56.8611 15.204 56.9686 15.2811 57.1119C15.3581 57.2553 15.3965 57.4298 15.3965 57.635V58.9453H15.0381V57.688C15.0381 57.4661 14.9842 57.2965 14.8768 57.1789C14.7692 57.0612 14.6237 57.0023 14.4405 57.0023C14.252 57.0023 14.1019 57.064 13.9905 57.187C13.8788 57.31 13.823 57.4878 13.823 57.7204V58.9453H13.4646V57.688C13.4646 57.4661 13.4109 57.2965 13.3033 57.1789C13.1957 57.0612 13.0502 57.0023 12.867 57.0023C12.6785 57.0023 12.5285 57.064 12.417 57.187C12.3055 57.3101 12.2497 57.4878 12.2497 57.7204V58.9454H11.8872V56.7225H12.2497V57.043C12.3213 56.9267 12.4176 56.8376 12.5385 56.7753C12.6593 56.713 12.7927 56.682 12.9388 56.682C13.122 56.682 13.2839 56.7241 13.4248 56.8078C13.5656 56.8916 13.6704 57.0145 13.7394 57.1768C13.8005 57.02 13.9014 56.8983 14.0421 56.8118C14.1829 56.7253 14.3396 56.682 14.5123 56.682C14.6822 56.682 14.8335 56.7178 14.9664 56.7895L14.9664 56.7895Z" fill="white"/>
<path d="M16.0021 56.2886C15.9544 56.2398 15.9304 56.1802 15.9304 56.11C15.9304 56.0397 15.9544 55.9802 16.0021 55.9316C16.0499 55.8829 16.1084 55.8585 16.1774 55.8585C16.2438 55.8585 16.3003 55.8829 16.3467 55.9316C16.3932 55.9802 16.4165 56.0397 16.4165 56.11C16.4165 56.1802 16.3932 56.2398 16.3467 56.2886C16.3003 56.337 16.2438 56.3614 16.1774 56.3614C16.1084 56.3614 16.0499 56.337 16.0021 56.2886ZM16.3528 56.7224V58.9453H15.9902V56.7224H16.3528Z" fill="white"/>
<path d="M17.8583 57.0267H17.4002V58.9453H17.0377V57.0267H16.7549V56.7225H17.0377V56.5643C17.0377 56.3156 17.1008 56.1337 17.2269 56.0188C17.353 55.9039 17.5556 55.8463 17.8345 55.8463V56.1547C17.675 56.1547 17.5629 56.1865 17.4978 56.2498C17.4327 56.3135 17.4002 56.4184 17.4002 56.5643V56.7225H17.8583V57.0267V57.0267Z" fill="white"/>
<path d="M18.2925 56.2886C18.2447 56.2398 18.2208 56.1802 18.2208 56.11C18.2208 56.0397 18.2447 55.9802 18.2925 55.9316C18.3402 55.8829 18.3987 55.8585 18.4677 55.8585C18.5342 55.8585 18.5906 55.8829 18.637 55.9316C18.6836 55.9802 18.7069 56.0397 18.7069 56.11C18.7069 56.1802 18.6836 56.2398 18.637 56.2886C18.5906 56.337 18.5342 56.3614 18.4677 56.3614C18.3987 56.3614 18.3402 56.337 18.2925 56.2886ZM18.6431 56.7224V58.9453H18.2806V56.7224H18.6431Z" fill="white"/>
<path d="M21.2401 57.9719H19.4955C19.5087 58.191 19.5823 58.362 19.7164 58.485C19.8505 58.608 20.0131 58.6695 20.2043 58.6695C20.3611 58.6695 20.4919 58.6323 20.5968 58.5579C20.7016 58.4836 20.7754 58.3843 20.8179 58.2598H21.2083C21.1498 58.4734 21.0329 58.6472 20.8577 58.7811C20.6825 58.9149 20.4647 58.9819 20.2044 58.9819C19.9973 58.9819 19.8121 58.9344 19.6488 58.8399C19.4854 58.7453 19.3573 58.6108 19.2643 58.4364C19.1713 58.2619 19.1249 58.0598 19.1249 57.8299C19.1249 57.6001 19.17 57.3987 19.2604 57.2256C19.3506 57.0525 19.4774 56.9193 19.6408 56.826C19.8041 56.7327 19.9919 56.686 20.2043 56.686C20.4115 56.686 20.5947 56.732 20.7542 56.8239C20.9134 56.9158 21.0363 57.0423 21.1226 57.2031C21.2088 57.364 21.252 57.5459 21.252 57.7488C21.252 57.8192 21.2481 57.8934 21.2401 57.9718V57.9719ZM20.7859 57.3087C20.7249 57.2072 20.642 57.1301 20.537 57.0775C20.4321 57.0248 20.316 56.9984 20.1885 56.9984C20.0053 56.9984 19.8491 57.0579 19.7204 57.1768C19.5916 57.2959 19.5178 57.4608 19.4993 57.6718H20.8775C20.8775 57.5312 20.8471 57.4101 20.7859 57.3087H20.7859Z" fill="white"/>
<path d="M21.7301 57.2275C21.8204 57.0558 21.9444 56.9227 22.1025 56.8279C22.2606 56.7334 22.4378 56.6859 22.6343 56.6859C22.8043 56.6859 22.9623 56.7259 23.1083 56.8057C23.2543 56.8853 23.3658 56.9902 23.443 57.12V55.9437H23.8094V58.9453H23.443V58.5275C23.3713 58.6599 23.265 58.769 23.1243 58.8541C22.9834 58.9393 22.8189 58.9818 22.6304 58.9818C22.4365 58.9818 22.2606 58.933 22.1025 58.8358C21.9444 58.7385 21.8204 58.602 21.7301 58.4261C21.6397 58.2505 21.5947 58.0504 21.5947 57.8258C21.5947 57.5987 21.6397 57.3993 21.7301 57.2275V57.2275ZM23.3434 57.3917C23.2769 57.2675 23.1873 57.1721 23.0745 57.1058C22.9617 57.0397 22.8374 57.0065 22.702 57.0065C22.5667 57.0065 22.4431 57.039 22.3316 57.1037C22.2201 57.1688 22.1311 57.2633 22.0646 57.3877C21.9983 57.5122 21.9652 57.6582 21.9652 57.8258C21.9652 57.9961 21.9983 58.1442 22.0646 58.2699C22.1311 58.3957 22.2201 58.4917 22.3316 58.5578C22.4431 58.6243 22.5667 58.6574 22.702 58.6574C22.8374 58.6574 22.9617 58.6243 23.0745 58.5578C23.1873 58.4917 23.2769 58.3957 23.3434 58.2699C23.4097 58.1442 23.443 57.9975 23.443 57.8299C23.443 57.6622 23.4097 57.5163 23.3434 57.3917V57.3917Z" fill="white"/>
<path d="M25.8491 56.1182V58.9454H25.4866V56.1182H25.8491Z" fill="white"/>
<path d="M28.1752 56.9274C28.3398 57.091 28.4223 57.327 28.4223 57.6351V58.9454H28.0637V57.688C28.0637 57.4662 28.0093 57.2966 27.9003 57.1789C27.7914 57.0612 27.6427 57.0024 27.4542 57.0024C27.263 57.0024 27.111 57.0633 26.9982 57.185C26.8852 57.3066 26.8289 57.4838 26.8289 57.7164V58.9454H26.4664V56.7225H26.8289V57.0391C26.9004 56.9253 26.9982 56.8376 27.1216 56.7753C27.2451 56.713 27.3811 56.682 27.53 56.682C27.7955 56.682 28.0104 56.7639 28.1751 56.9274L28.1752 56.9274Z" fill="white"/>
<path d="M29.4579 57.0267V58.337C29.4579 58.445 29.4805 58.5215 29.5257 58.5662C29.5707 58.6108 29.6491 58.633 29.7607 58.633H30.0276V58.9454H29.7009C29.499 58.9454 29.3477 58.8981 29.2467 58.8033C29.1458 58.7088 29.0953 58.5533 29.0953 58.337V57.0267H28.8125V56.7225H29.0953V56.1628H29.4578V56.7225H30.0275V57.0267H29.4578H29.4579Z" fill="white"/>
<path d="M32.4454 57.9719H30.7008C30.714 58.191 30.7876 58.362 30.9217 58.485C31.0558 58.608 31.2185 58.6695 31.4097 58.6695C31.5664 58.6695 31.6972 58.6323 31.8021 58.5579C31.907 58.4836 31.9807 58.3843 32.0232 58.2598H32.4136C32.3552 58.4734 32.2382 58.6472 32.063 58.7811C31.8878 58.9149 31.6701 58.9819 31.4097 58.9819C31.2027 58.9819 31.0174 58.9344 30.8541 58.8399C30.6907 58.7453 30.5626 58.6108 30.4696 58.4364C30.3767 58.2619 30.3303 58.0598 30.3303 57.8299C30.3303 57.6001 30.3753 57.3987 30.4657 57.2256C30.556 57.0525 30.6828 56.9193 30.8461 56.826C31.0094 56.7327 31.1972 56.686 31.4097 56.686C31.6168 56.686 31.8001 56.732 31.9595 56.8239C32.1187 56.9158 32.2416 57.0423 32.328 57.2031C32.4141 57.364 32.4573 57.5459 32.4573 57.7488C32.4573 57.8192 32.4534 57.8934 32.4454 57.9718V57.9719ZM31.9913 57.3087C31.9303 57.2072 31.8473 57.1301 31.7423 57.0775C31.6374 57.0248 31.5213 56.9984 31.3938 56.9984C31.2106 56.9984 31.0544 57.0579 30.9258 57.1768C30.7969 57.2959 30.7232 57.4608 30.7047 57.6718H32.0829C32.0829 57.5312 32.0524 57.4101 31.9912 57.3087H31.9913Z" fill="white"/>
<path d="M33.5707 56.7874C33.6888 56.7171 33.8329 56.682 34.0029 56.682V57.0633H33.9072C33.501 57.0633 33.2979 57.2877 33.2979 57.7365V58.9454H32.9354V56.7225H33.2979V57.0835C33.3616 56.9565 33.4526 56.8577 33.5707 56.7874V56.7874Z" fill="white"/>
<path d="M34.4212 57.2275C34.5114 57.0558 34.6355 56.9227 34.7935 56.8279C34.9516 56.7334 35.1275 56.686 35.3214 56.686C35.5126 56.686 35.6785 56.7278 35.8193 56.8118C35.96 56.8957 36.0648 57.001 36.134 57.1282V56.7225H36.5005V58.9454H36.134V58.5316C36.0623 58.6613 35.9554 58.769 35.8133 58.8541C35.6712 58.9393 35.5058 58.9819 35.3174 58.9819C35.1234 58.9819 34.9482 58.9331 34.7915 58.8358C34.6348 58.7385 34.5114 58.602 34.4212 58.4262C34.3307 58.2505 34.2857 58.0504 34.2857 57.8258C34.2857 57.5987 34.3307 57.3994 34.4212 57.2275V57.2275ZM36.0344 57.3917C35.968 57.2675 35.8784 57.1721 35.7655 57.1058C35.6527 57.0397 35.5284 57.0065 35.393 57.0065C35.2577 57.0065 35.1341 57.039 35.0227 57.1038C34.9112 57.1688 34.8221 57.2633 34.7556 57.3878C34.6894 57.5122 34.6562 57.6583 34.6562 57.8258C34.6562 57.9961 34.6894 58.1442 34.7556 58.2699C34.8221 58.3957 34.9112 58.4918 35.0227 58.5579C35.1341 58.6243 35.2577 58.6574 35.393 58.6574C35.5284 58.6574 35.6527 58.6243 35.7655 58.5579C35.8784 58.4918 35.968 58.3957 36.0344 58.2699C36.1007 58.1442 36.134 57.9975 36.134 57.83C36.134 57.6623 36.1007 57.5164 36.0344 57.3917V57.3917Z" fill="white"/>
<path d="M37.1141 57.2275C37.2043 57.0558 37.3297 56.9227 37.4905 56.8279C37.6511 56.7334 37.835 56.686 38.0422 56.686C38.3104 56.686 38.5313 56.7524 38.7054 56.8847C38.8792 57.0172 38.9941 57.2012 39.0499 57.4364H38.6595C38.6223 57.3012 38.55 57.1945 38.4424 57.1159C38.3348 57.0376 38.2014 56.9984 38.0422 56.9984C37.835 56.9984 37.6678 57.0707 37.5403 57.2154C37.4128 57.3601 37.3491 57.5648 37.3491 57.8299C37.3491 58.0975 37.4128 58.3045 37.5403 58.4506C37.6678 58.5966 37.835 58.6695 38.0422 58.6695C38.2014 58.6695 38.3342 58.6316 38.4404 58.556C38.5466 58.4804 38.6197 58.372 38.6595 58.2315H39.0499C38.9914 58.4585 38.8747 58.6406 38.6994 58.777C38.5242 58.9137 38.3051 58.9819 38.0422 58.9819C37.835 58.9819 37.6511 58.9344 37.4905 58.8399C37.3297 58.7453 37.2043 58.6115 37.114 58.4384C37.0236 58.2654 36.9786 58.0625 36.9786 57.8299C36.9786 57.6001 37.0236 57.3994 37.114 57.2275H37.1141Z" fill="white"/>
<path d="M39.974 57.0267V58.337C39.974 58.445 39.9966 58.5215 40.0418 58.5662C40.0868 58.6108 40.1652 58.633 40.2768 58.633H40.5437V58.9454H40.217C40.0151 58.9454 39.8638 58.8981 39.7629 58.8033C39.6619 58.7088 39.6114 58.5533 39.6114 58.337V57.0267H39.3286V56.7225H39.6114V56.1628H39.974V56.7225H40.5437V57.0267H39.974H39.974Z" fill="white"/>
<path d="M40.9937 56.2886C40.946 56.2398 40.922 56.1802 40.922 56.11C40.922 56.0397 40.946 55.9802 40.9937 55.9316C41.0415 55.8829 41.1 55.8585 41.1689 55.8585C41.2354 55.8585 41.2918 55.8829 41.3382 55.9316C41.3848 55.9802 41.4081 56.0397 41.4081 56.11C41.4081 56.1802 41.3848 56.2398 41.3382 56.2886C41.2918 56.337 41.2354 56.3614 41.1689 56.3614C41.0999 56.3614 41.0415 56.337 40.9937 56.2886ZM41.3443 56.7224V58.9453H40.9818V56.7224H41.3443Z" fill="white"/>
<path d="M42.7742 58.6046L43.4513 56.7225H43.8378L42.9814 58.9453H42.559L41.7026 56.7225H42.093L42.7742 58.6046Z" fill="white"/>
<path d="M46.1759 57.9719H44.4313C44.4446 58.191 44.5181 58.362 44.6522 58.485C44.7863 58.608 44.949 58.6695 45.1402 58.6695C45.2969 58.6695 45.4278 58.6323 45.5326 58.5579C45.6375 58.4836 45.7113 58.3843 45.7538 58.2598H46.1442C46.0857 58.4734 45.9688 58.6472 45.7935 58.7811C45.6183 58.9149 45.4006 58.9819 45.1402 58.9819C44.9332 58.9819 44.7479 58.9344 44.5846 58.8399C44.4213 58.7453 44.2931 58.6108 44.2002 58.4364C44.1072 58.2619 44.0608 58.0598 44.0608 57.8299C44.0608 57.6001 44.1058 57.3987 44.1962 57.2256C44.2865 57.0525 44.4133 56.9193 44.5766 56.826C44.7399 56.7327 44.9277 56.686 45.1402 56.686C45.3474 56.686 45.5306 56.732 45.69 56.8239C45.8493 56.9158 45.9722 57.0423 46.0585 57.2031C46.1447 57.364 46.1878 57.5459 46.1878 57.7488C46.1878 57.8192 46.1839 57.8934 46.1759 57.9718V57.9719ZM45.7218 57.3087C45.6608 57.2072 45.5779 57.1301 45.4728 57.0775C45.3679 57.0248 45.2519 56.9984 45.1244 56.9984C44.9412 56.9984 44.785 57.0579 44.6563 57.1768C44.5275 57.2959 44.4537 57.4608 44.4352 57.6718H45.8134C45.8134 57.5312 45.783 57.4101 45.7218 57.3087H45.7218Z" fill="white"/>
<path d="M50.5458 56.1384V58.9453H50.1833V56.8523L49.2672 58.9453H49.0122L48.0921 56.8483V58.9453H47.7296V56.1384H48.12L49.1397 58.4585L50.1595 56.1384H50.5458H50.5458Z" fill="white"/>
<path d="M51.5557 58.8399C51.3896 58.7453 51.2594 58.6108 51.1653 58.4363C51.0709 58.2619 51.0239 58.0598 51.0239 57.8299C51.0239 57.6027 51.0723 57.4019 51.1692 57.2275C51.2661 57.0532 51.3983 56.9192 51.5655 56.826C51.7329 56.7327 51.9201 56.686 52.1272 56.686C52.3344 56.686 52.5215 56.7327 52.6889 56.826C52.8562 56.9193 52.9882 57.0525 53.0853 57.2256C53.1822 57.3987 53.2306 57.6001 53.2306 57.8299C53.2306 58.0598 53.1808 58.2619 53.0812 58.4364C52.9816 58.6108 52.8468 58.7453 52.6769 58.8399C52.5069 58.9344 52.3184 58.9819 52.1113 58.9819C51.9068 58.9819 51.7215 58.9344 51.5557 58.8399L51.5557 58.8399ZM52.4779 58.5641C52.5919 58.5018 52.6842 58.4087 52.7546 58.284C52.8249 58.1598 52.8603 58.0083 52.8603 57.8299C52.8603 57.6513 52.8256 57.5001 52.7566 57.3754C52.6876 57.2512 52.5974 57.1584 52.4857 57.0977C52.3742 57.0369 52.2533 57.0065 52.1233 57.0065C51.9904 57.0065 51.8689 57.0369 51.7588 57.0977C51.6485 57.1584 51.5603 57.2512 51.4938 57.3754C51.4275 57.5 51.3944 57.6513 51.3944 57.8299C51.3944 58.011 51.4268 58.1639 51.4919 58.2882C51.5568 58.4126 51.6439 58.5052 51.7528 58.5661C51.8616 58.6269 51.9812 58.6573 52.1113 58.6573C52.2414 58.6573 52.3637 58.6264 52.4779 58.5641L52.4779 58.5641Z" fill="white"/>
<path d="M54.3978 56.8118C54.5412 56.7278 54.7045 56.6859 54.8877 56.6859C55.0842 56.6859 55.2608 56.7334 55.4175 56.8279C55.5742 56.9227 55.6978 57.0558 55.788 57.2275C55.8783 57.3993 55.9235 57.5987 55.9235 57.8258C55.9235 58.0504 55.8783 58.2505 55.788 58.4261C55.6978 58.602 55.5735 58.7385 55.4156 58.8358C55.2576 58.933 55.0817 58.9818 54.8877 58.9818C54.6993 58.9818 54.5339 58.94 54.3918 58.8562C54.2497 58.7723 54.1428 58.6655 54.0713 58.5357V58.9453H53.7087V55.9437H54.0713V57.1363C54.1455 57.0037 54.2545 56.8957 54.3978 56.8118V56.8118ZM55.4534 57.3877C55.3871 57.2633 55.2973 57.1688 55.1845 57.1037C55.0717 57.039 54.9476 57.0065 54.8121 57.0065C54.6792 57.0065 54.5565 57.0397 54.4437 57.1058C54.3308 57.1721 54.2405 57.2681 54.1727 57.3938C54.1051 57.5194 54.0713 57.665 54.0713 57.8299C54.0713 57.9974 54.1051 58.1442 54.1727 58.2698C54.2405 58.3957 54.3308 58.4917 54.4437 58.5578C54.5565 58.6243 54.6792 58.6573 54.8121 58.6573C54.9476 58.6573 55.0717 58.6243 55.1845 58.5578C55.2973 58.4917 55.3871 58.3957 55.4534 58.2698C55.5198 58.1442 55.553 57.9961 55.553 57.8258C55.553 57.6582 55.5198 57.5122 55.4534 57.3877V57.3877Z" fill="white"/>
<path d="M56.4135 56.2886C56.3658 56.2398 56.3418 56.1802 56.3418 56.11C56.3418 56.0397 56.3658 55.9802 56.4135 55.9316C56.4613 55.8829 56.5197 55.8585 56.5887 55.8585C56.6552 55.8585 56.7116 55.8829 56.758 55.9316C56.8046 55.9802 56.8279 56.0397 56.8279 56.11C56.8279 56.1802 56.8046 56.2398 56.758 56.2886C56.7116 56.337 56.6552 56.3614 56.5887 56.3614C56.5197 56.3614 56.4613 56.337 56.4135 56.2886ZM56.7641 56.7224V58.9453H56.4016V56.7224H56.7641Z" fill="white"/>
<path d="M57.7439 55.9437V58.9453H57.3814V55.9437H57.7439Z" fill="white"/>
<path d="M60.3409 57.9719H58.5963C58.6095 58.191 58.6831 58.362 58.8172 58.485C58.9513 58.608 59.114 58.6695 59.3052 58.6695C59.4619 58.6695 59.5927 58.6323 59.6976 58.5579C59.8025 58.4836 59.8762 58.3843 59.9187 58.2598H60.3091C60.2507 58.4734 60.1337 58.6472 59.9585 58.7811C59.7833 58.9149 59.5656 58.9819 59.3052 58.9819C59.0982 58.9819 58.9129 58.9344 58.7496 58.8399C58.5863 58.7453 58.4581 58.6108 58.3651 58.4364C58.2722 58.2619 58.2258 58.0598 58.2258 57.8299C58.2258 57.6001 58.2708 57.3987 58.3612 57.2256C58.4515 57.0525 58.5783 56.9193 58.7416 56.826C58.9049 56.7327 59.0927 56.686 59.3052 56.686C59.5124 56.686 59.6956 56.732 59.855 56.8239C60.0142 56.9158 60.1371 57.0423 60.2235 57.2031C60.3096 57.364 60.3528 57.5459 60.3528 57.7488C60.3528 57.8192 60.3489 57.8934 60.3409 57.9718V57.9719ZM59.8868 57.3087C59.8258 57.2072 59.7428 57.1301 59.6378 57.0775C59.5329 57.0248 59.4168 56.9984 59.2894 56.9984C59.1061 56.9984 58.9499 57.0579 58.8213 57.1768C58.6925 57.2959 58.6187 57.4608 58.6002 57.6718H59.9784C59.9784 57.5312 59.9479 57.4101 59.8867 57.3087H59.8868Z" fill="white"/>
<path d="M64.7108 56.1384V58.9453H64.3482V56.8523L63.4321 58.9453H63.1772L62.2571 56.8483V58.9453H61.8945V56.1384H62.2849L63.3047 58.4585L64.3245 56.1384H64.7108H64.7108Z" fill="white"/>
<path d="M65.3362 56.2886C65.2884 56.2398 65.2645 56.1802 65.2645 56.11C65.2645 56.0397 65.2884 55.9802 65.3362 55.9316C65.3839 55.8829 65.4424 55.8585 65.5114 55.8585C65.5779 55.8585 65.6343 55.8829 65.6807 55.9316C65.7273 55.9802 65.7506 56.0397 65.7506 56.11C65.7506 56.1802 65.7273 56.2398 65.6807 56.2886C65.6343 56.337 65.5779 56.3614 65.5114 56.3614C65.4424 56.3614 65.3839 56.337 65.3362 56.2886ZM65.6868 56.7224V58.9453H65.3243V56.7224H65.6868Z" fill="white"/>
<path d="M66.3041 57.2275C66.3944 57.0558 66.5198 56.9227 66.6806 56.8279C66.8412 56.7334 67.0251 56.686 67.2323 56.686C67.5005 56.686 67.7214 56.7524 67.8954 56.8847C68.0693 57.0172 68.1842 57.2012 68.2399 57.4364H67.8495C67.8123 57.3012 67.7401 57.1945 67.6325 57.1159C67.5249 57.0376 67.3915 56.9984 67.2322 56.9984C67.0251 56.9984 66.8578 57.0707 66.7304 57.2154C66.6029 57.3601 66.5392 57.5648 66.5392 57.8299C66.5392 58.0975 66.6029 58.3045 66.7304 58.4506C66.8578 58.5966 67.0251 58.6695 67.2322 58.6695C67.3915 58.6695 67.5242 58.6316 67.6305 58.556C67.7367 58.4804 67.8098 58.372 67.8495 58.2315H68.2399C68.1815 58.4585 68.0647 58.6406 67.8895 58.777C67.7143 58.9137 67.4952 58.9819 67.2322 58.9819C67.0251 58.9819 66.8412 58.9344 66.6806 58.8399C66.5198 58.7453 66.3943 58.6115 66.3041 58.4384C66.2137 58.2654 66.1686 58.0625 66.1686 57.8299C66.1686 57.6001 66.2137 57.3994 66.3041 57.2275H66.3041Z" fill="white"/>
<path d="M69.3573 56.7874C69.4754 56.7171 69.6195 56.682 69.7895 56.682V57.0633H69.6938C69.2876 57.0633 69.0845 57.2877 69.0845 57.7365V58.9454H68.722V56.7225H69.0845V57.0835C69.1482 56.9565 69.2392 56.8577 69.3573 56.7874V56.7874Z" fill="white"/>
<path d="M70.6041 58.8399C70.4381 58.7453 70.3079 58.6108 70.2137 58.4363C70.1194 58.2619 70.0723 58.0598 70.0723 57.8299C70.0723 57.6027 70.1208 57.4019 70.2176 57.2275C70.3145 57.0532 70.4468 56.9192 70.614 56.826C70.7814 56.7327 70.9685 56.686 71.1757 56.686C71.3829 56.686 71.57 56.7327 71.7374 56.826C71.9046 56.9193 72.0367 57.0525 72.1337 57.2256C72.2306 57.3987 72.2791 57.6001 72.2791 57.8299C72.2791 58.0598 72.2293 58.2619 72.1297 58.4364C72.0301 58.6108 71.8953 58.7453 71.7253 58.8399C71.5554 58.9344 71.3669 58.9819 71.1597 58.9819C70.9553 58.9819 70.77 58.9344 70.6041 58.8399L70.6041 58.8399ZM71.5263 58.5641C71.6404 58.5018 71.7327 58.4087 71.803 58.284C71.8734 58.1598 71.9087 58.0083 71.9087 57.8299C71.9087 57.6513 71.8741 57.5001 71.8051 57.3754C71.7361 57.2512 71.6458 57.1584 71.5341 57.0977C71.4227 57.0369 71.3018 57.0065 71.1718 57.0065C71.0389 57.0065 70.9174 57.0369 70.8072 57.0977C70.6969 57.1584 70.6087 57.2512 70.5423 57.3754C70.476 57.5 70.4428 57.6513 70.4428 57.8299C70.4428 58.011 70.4753 58.1639 70.5404 58.2882C70.6053 58.4126 70.6923 58.5052 70.8013 58.5661C70.91 58.6269 71.0297 58.6573 71.1597 58.6573C71.2899 58.6573 71.4121 58.6264 71.5263 58.5641L71.5263 58.5641Z" fill="white"/>
<path d="M74.2709 57.3026V57.615H72.6814V57.3026H74.2709Z" fill="white"/>
<path d="M75.3146 56.4184V57.3633H76.3263V57.6676H75.3146V58.6411H76.4458V58.9453H74.952V56.1141H76.4458V56.4184H75.3146V56.4184Z" fill="white"/>
<path d="M78.1347 58.9453L77.6168 58.1179L77.1189 58.9453H76.7405L77.4455 57.842L76.7405 56.7225H77.1508L77.6687 57.5459L78.1626 56.7225H78.5409L77.8398 57.8218L78.545 58.9453H78.1347L78.1347 58.9453Z" fill="white"/>
<path d="M79.5865 56.8137C79.7286 56.7285 79.894 56.686 80.0825 56.686C80.2764 56.686 80.4523 56.7334 80.6104 56.8279C80.7682 56.9227 80.8925 57.0558 80.9827 57.2275C81.073 57.3994 81.1182 57.5987 81.1182 57.8258C81.1182 58.0504 81.073 58.2505 80.9827 58.4262C80.8925 58.602 80.7682 58.7385 80.6104 58.8358C80.4523 58.9331 80.2764 58.9819 80.0825 58.9819C79.8965 58.9819 79.7325 58.9393 79.5906 58.8541C79.4485 58.769 79.3402 58.6627 79.266 58.5357V60H78.9034V56.7225H79.266V57.1321C79.3375 57.0051 79.4444 56.8989 79.5865 56.8137ZM80.6481 57.3878C80.5818 57.2633 80.4921 57.1688 80.3792 57.1038C80.2664 57.039 80.1423 57.0065 80.0068 57.0065C79.8739 57.0065 79.7512 57.0397 79.6384 57.1058C79.5255 57.1721 79.4353 57.2682 79.3674 57.3938C79.2998 57.5195 79.266 57.665 79.266 57.8299C79.266 57.9975 79.2998 58.1442 79.3674 58.2699C79.4353 58.3957 79.5255 58.4918 79.6384 58.5579C79.7512 58.6243 79.8739 58.6574 80.0068 58.6574C80.1423 58.6574 80.2664 58.6243 80.3792 58.5579C80.4921 58.4918 80.5818 58.3957 80.6481 58.2699C80.7145 58.1442 80.7477 57.9961 80.7477 57.8258C80.7477 57.6583 80.7145 57.5122 80.6481 57.3877V57.3878Z" fill="white"/>
<path d="M83.576 57.9719H81.8313C81.8446 58.191 81.9182 58.362 82.0523 58.485C82.1864 58.608 82.349 58.6695 82.5402 58.6695C82.6969 58.6695 82.8278 58.6323 82.9327 58.5579C83.0375 58.4836 83.1113 58.3843 83.1538 58.2598H83.5442C83.4857 58.4734 83.3688 58.6472 83.1936 58.7811C83.0183 58.9149 82.8006 58.9819 82.5402 58.9819C82.3332 58.9819 82.148 58.9344 81.9846 58.8399C81.8213 58.7453 81.6932 58.6108 81.6002 58.4364C81.5072 58.2619 81.4608 58.0598 81.4608 57.8299C81.4608 57.6001 81.5059 57.3987 81.5963 57.2256C81.6865 57.0525 81.8133 56.9193 81.9766 56.826C82.14 56.7327 82.3278 56.686 82.5402 56.686C82.7474 56.686 82.9306 56.732 83.09 56.8239C83.2493 56.9158 83.3722 57.0423 83.4585 57.2031C83.5447 57.364 83.5879 57.5459 83.5879 57.7488C83.5879 57.8192 83.5839 57.8934 83.576 57.9718V57.9719ZM83.1218 57.3087C83.0608 57.2072 82.9779 57.1301 82.8728 57.0775C82.768 57.0248 82.6519 56.9984 82.5244 56.9984C82.3412 56.9984 82.185 57.0579 82.0563 57.1768C81.9275 57.2959 81.8537 57.4608 81.8352 57.6718H83.2134C83.2134 57.5312 83.183 57.4101 83.1218 57.3087H83.1218Z" fill="white"/>
<path d="M84.7013 56.7874C84.8194 56.7171 84.9635 56.682 85.1335 56.682V57.0633H85.0378C84.6316 57.0633 84.4285 57.2877 84.4285 57.7365V58.9454H84.066V56.7225H84.4285V57.0835C84.4922 56.9565 84.5832 56.8577 84.7013 56.7874V56.7874Z" fill="white"/>
<path d="M85.5637 56.2886C85.5159 56.2398 85.4919 56.1802 85.4919 56.11C85.4919 56.0397 85.5159 55.9802 85.5637 55.9316C85.6114 55.8829 85.6699 55.8585 85.7389 55.8585C85.8053 55.8585 85.8618 55.8829 85.9082 55.9316C85.9547 55.9802 85.978 56.0397 85.978 56.11C85.978 56.1802 85.9547 56.2398 85.9082 56.2886C85.8618 56.337 85.8053 56.3614 85.7389 56.3614C85.6699 56.3614 85.6114 56.337 85.5637 56.2886ZM85.9143 56.7224V58.9453H85.5518V56.7224H85.9143Z" fill="white"/>
<path d="M88.5113 57.9719H86.7666C86.7799 58.191 86.8535 58.362 86.9876 58.485C87.1217 58.608 87.2843 58.6695 87.4755 58.6695C87.6322 58.6695 87.7631 58.6323 87.868 58.5579C87.9728 58.4836 88.0466 58.3843 88.0891 58.2598H88.4795C88.421 58.4734 88.3041 58.6472 88.1289 58.7811C87.9536 58.9149 87.7359 58.9819 87.4755 58.9819C87.2685 58.9819 87.0833 58.9344 86.9199 58.8399C86.7566 58.7453 86.6285 58.6108 86.5355 58.4364C86.4425 58.2619 86.3961 58.0598 86.3961 57.8299C86.3961 57.6001 86.4412 57.3987 86.5316 57.2256C86.6218 57.0525 86.7486 56.9193 86.9119 56.826C87.0752 56.7327 87.2631 56.686 87.4755 56.686C87.6827 56.686 87.8659 56.732 88.0253 56.8239C88.1846 56.9158 88.3075 57.0423 88.3938 57.2031C88.48 57.364 88.5232 57.5459 88.5232 57.7488C88.5232 57.8192 88.5193 57.8934 88.5113 57.9718V57.9719ZM88.0571 57.3087C87.9961 57.2072 87.9132 57.1301 87.8081 57.0775C87.7033 57.0248 87.5872 56.9984 87.4597 56.9984C87.2765 56.9984 87.1203 57.0579 86.9916 57.1768C86.8628 57.2959 86.789 57.4608 86.7705 57.6718H88.1487C88.1487 57.5312 88.1183 57.4101 88.0571 57.3087H88.0571Z" fill="white"/>
<path d="M90.7101 56.9274C90.8748 57.091 90.9572 57.327 90.9572 57.6351V58.9454H90.5986V57.688C90.5986 57.4662 90.5442 57.2966 90.4352 57.1789C90.3263 57.0612 90.1776 57.0024 89.9891 57.0024C89.7979 57.0024 89.6459 57.0633 89.5331 57.185C89.4201 57.3066 89.3638 57.4838 89.3638 57.7164V58.9454H89.0013V56.7225H89.3638V57.0391C89.4354 56.9253 89.5331 56.8376 89.6565 56.7753C89.78 56.713 89.916 56.682 90.0649 56.682C90.3304 56.682 90.5454 56.7639 90.71 56.9274L90.7101 56.9274Z" fill="white"/>
<path d="M91.5506 57.2275C91.6409 57.0558 91.7663 56.9227 91.9271 56.8279C92.0877 56.7334 92.2716 56.686 92.4788 56.686C92.747 56.686 92.9679 56.7524 93.142 56.8847C93.3158 57.0172 93.4307 57.2012 93.4865 57.4364H93.0961C93.0588 57.3012 92.9866 57.1945 92.879 57.1159C92.7714 57.0376 92.638 56.9984 92.4788 56.9984C92.2716 56.9984 92.1043 57.0707 91.9769 57.2154C91.8494 57.3601 91.7857 57.5648 91.7857 57.8299C91.7857 58.0975 91.8494 58.3045 91.9769 58.4506C92.1043 58.5966 92.2716 58.6695 92.4788 58.6695C92.638 58.6695 92.7708 58.6316 92.877 58.556C92.9832 58.4804 93.0563 58.372 93.0961 58.2315H93.4865C93.428 58.4585 93.3112 58.6406 93.136 58.777C92.9608 58.9137 92.7417 58.9819 92.4788 58.9819C92.2716 58.9819 92.0877 58.9344 91.9271 58.8399C91.7663 58.7453 91.6409 58.6115 91.5506 58.4384C91.4602 58.2654 91.4152 58.0625 91.4152 57.8299C91.4152 57.6001 91.4602 57.3994 91.5506 57.2275H91.5506Z" fill="white"/>
<path d="M95.9482 57.9719H94.2036C94.2168 58.191 94.2904 58.362 94.4245 58.485C94.5586 58.608 94.7213 58.6695 94.9125 58.6695C95.0692 58.6695 95.2 58.6323 95.3049 58.5579C95.4098 58.4836 95.4835 58.3843 95.526 58.2598H95.9164C95.858 58.4734 95.741 58.6472 95.5658 58.7811C95.3906 58.9149 95.1729 58.9819 94.9125 58.9819C94.7055 58.9819 94.5202 58.9344 94.3569 58.8399C94.1936 58.7453 94.0654 58.6108 93.9724 58.4364C93.8795 58.2619 93.8331 58.0598 93.8331 57.8299C93.8331 57.6001 93.8781 57.3987 93.9685 57.2256C94.0588 57.0525 94.1856 56.9193 94.3489 56.826C94.5122 56.7327 94.7 56.686 94.9125 56.686C95.1196 56.686 95.3029 56.732 95.4623 56.8239C95.6216 56.9158 95.7444 57.0423 95.8308 57.2031C95.9169 57.364 95.9601 57.5459 95.9601 57.7488C95.9601 57.8192 95.9562 57.8934 95.9482 57.9718V57.9719ZM95.4941 57.3087C95.4331 57.2072 95.3501 57.1301 95.2451 57.0775C95.1402 57.0248 95.0241 56.9984 94.8967 56.9984C94.7134 56.9984 94.5572 57.0579 94.4286 57.1768C94.2998 57.2959 94.226 57.4608 94.2075 57.6718H95.5857C95.5857 57.5312 95.5552 57.4101 95.494 57.3087H95.4941Z" fill="white"/>
<path d="M96.7608 58.8946C96.6281 58.8365 96.5232 58.7555 96.4462 58.6513C96.369 58.5471 96.3265 58.4275 96.3187 58.2924H96.6932C96.7037 58.4031 96.7548 58.4938 96.8465 58.5641C96.9381 58.6343 97.0582 58.6695 97.207 58.6695C97.345 58.6695 97.4539 58.6385 97.5336 58.5762C97.6133 58.514 97.6531 58.4356 97.6531 58.341C97.6531 58.2436 97.6106 58.1712 97.5256 58.124C97.4406 58.0767 97.3091 58.03 97.1313 57.984C96.9694 57.9407 96.8371 57.8967 96.735 57.8521C96.6327 57.8076 96.545 57.7413 96.4721 57.6534C96.399 57.5655 96.3624 57.4499 96.3624 57.3066C96.3624 57.1931 96.3958 57.0889 96.462 56.9944C96.5285 56.8997 96.6228 56.8246 96.7449 56.7691C96.8671 56.7137 97.0064 56.686 97.1631 56.686C97.4048 56.686 97.5999 56.7483 97.7488 56.8725C97.8975 56.9971 97.9771 57.1674 97.9878 57.3838H97.6252C97.6173 57.2675 97.5715 57.1742 97.4879 57.1037C97.4041 57.0335 97.2919 56.9984 97.1512 56.9984C97.021 56.9984 96.9175 57.0267 96.8405 57.0835C96.7635 57.1405 96.7249 57.2147 96.7249 57.3066C96.7249 57.3796 96.7482 57.4399 96.7946 57.4871C96.8412 57.5344 96.8995 57.5724 96.97 57.6008C97.0402 57.6292 97.1379 57.661 97.2627 57.696C97.4194 57.7393 97.5468 57.7818 97.6451 57.8237C97.7433 57.8658 97.8276 57.9286 97.8982 58.0124C97.9684 58.0963 98.0049 58.2059 98.0076 58.341C98.0076 58.4627 97.9745 58.5721 97.908 58.6695C97.8416 58.7669 97.7481 58.8434 97.6272 58.8988C97.5064 58.9542 97.3675 58.9819 97.211 58.9819C97.0436 58.9819 96.8935 58.9528 96.7608 58.8947V58.8946Z" fill="white"/>
</g>
<defs>
<clipPath id="clip0_93_103">
<rect width="104" height="34" fill="white" transform="translate(0 26)"/>
</clipPath>
</defs>
</svg>
